# xmcd
#
# Track frame offsets:
#	150
#	14768
#	29978
#	44320
#	58096
#	72689
#	86821
#	100828
#	114594
#	128816
#	142821
#	158225
#	172547
#	186521
#	201020
#	213736
#	228965
#	243434
#	256103
#	270952
#
# Disc length: 3786
#
# Revision: 2
# Processed by: cddbd v1.5.1PL0 Copyright (c) Steve Scherf et al.
# Submitted via: EasyCDDAExtractor 5.0.7
# Normalized: r1:DSETVAR1
#
DISCID=230ec814
DTITLE=Various Artist - The Best There Ever Was: The Legendary Early Blues Performers
DYEAR=2003
DGENRE=Blues
TTITLE0=Garfield Akers - Dough Roller Blues
TTITLE1=Tommy Johnson - Big Road Blues
TTITLE2=Son House - My Black Mama - Pt. 1
TTITLE3=Mississippi John Hurt - Ain't No Tellin'
TTITLE4=Skip James - Cypress Grove
TTITLE5=Blind Willie Johnson - I Know His Blood Can Make Me Whole
TTITLE6=Blind Willie McTell - Mama, Tain't Long Fo' Day
TTITLE7=Jaydee Short - Barefoot Blues - Jaydee Short
TTITLE8=Robert Wilkins - I'll Go With Her Blues
TTITLE9=Ed Bell - Squabblin' Blues
TTITLE10=Charlie Patton - It Won't Be Long - Charlie Patton.
TTITLE11=Frank Stokes - What's The Matter Blues
TTITLE12=Geeshie Wiley - Last Kind Word Blues
TTITLE13=William Harris - Bullfrog Blues
TTITLE14=Blind Blake - You Gonna Quit Me Blues
TTITLE15=King Solomon Hill - The Gone Dead Train
TTITLE16=Memphis Minnie - Outdoor Blues
TTITLE17=Blind Lemon Jefferson - Prison Cell Blues
TTITLE18=Sam Collins - Graveyard Digger's Blues
TTITLE19=Furry Lewis - Big Chief Blues
EXTD=
EXTT0=
EXTT1=
EXTT2=
EXTT3=
EXTT4=
EXTT5=
EXTT6=
EXTT7=
EXTT8=
EXTT9=
EXTT10=
EXTT11=
EXTT12=
EXTT13=
EXTT14=
EXTT15=
EXTT16=
EXTT17=
EXTT18=
EXTT19=
PLAYORDER=
